<svg xmlns="http://www.w3.org/2000/svg" width="218" height="260" viewBox="0 0 218 260">
    <g fill="none" fill-rule="nonzero">
        <path fill="#000" d="M151.372 162.062l1.293-29.73 6.532 29.844c.152.693.43 1.335.73 1.957 1.163 2.46 3.328 4.333 6.03 5l7.378 1.826 30.602 7.567c.739.182 1.476.27 2.205.27a9.18 9.18 0 0 0 8.891-6.995c1.21-4.933-1.791-9.913-6.704-11.13l-32.449-8.023-5.309-24.264 8.588 16.71 2.706.668v-16.993c0-10.222-8.264-18.511-18.454-18.511h-7.88c-10.189 0-18.454 8.29-18.454 18.51v33.014c2.048-.245 4.122-.41 6.238-.41 2.747 0 5.423.28 8.057.69zM217.121 245.234l-14.75-52.423a11.054 11.054 0 0 0-10.65-8.055h-4.73c5.577 8.321 8.845 18.313 8.845 29.057 0 7.57-1.648 14.75-4.556 21.251l4.54 16.132c1.369 4.87 5.81 8.059 10.646 8.059.987 0 1.996-.135 2.992-.415 5.882-1.649 9.315-7.737 7.663-13.606zM112.713 171.347a52.075 52.075 0 0 1 13.19-6.838l-10.263-32.031a7.32 7.32 0 0 0-6.977-5.085h-5.09c-.084.251-.113.508-.21.756-2.841 7.28-9.615 11.826-16.945 12.259 1.239.95 2.712 1.609 4.391 1.609h12.508l9.396 29.33z"/>
        <path fill="#000" d="M143.41 169.112c-24.892 0-45.072 20.176-45.072 45.071 0 24.892 20.18 45.072 45.072 45.072 24.895 0 45.071-20.18 45.071-45.072 0-24.895-20.176-45.071-45.071-45.071zm0 66.436c-11.782 0-21.365-9.583-21.365-21.365 0-11.782 9.583-21.364 21.365-21.364 11.781 0 21.364 9.582 21.364 21.364s-9.583 21.365-21.364 21.365z"/>
        <path fill="#000" d="M143.037 200.401c-7.817 0-14.154 6.338-14.154 14.155 0 7.817 6.337 14.155 14.154 14.155 7.821 0 14.155-6.338 14.155-14.155 0-7.817-6.334-14.155-14.155-14.155zM159.427 106.533c11.933 0 21.605-9.669 21.605-21.602 0-11.938-9.672-21.607-21.605-21.607-11.936 0-21.605 9.669-21.605 21.607 0 11.933 9.669 21.602 21.605 21.602z"/>
        <path fill="#7ED321" d="M26.074 50.659c13.99 0 25.33-11.337 25.33-25.328C51.404 11.337 40.064 0 26.074 0 12.081 0 .745 11.337.745 25.331c0 13.99 11.336 25.328 25.33 25.328zM95.36 125.32c2.172-5.576-.583-11.854-6.145-14.023L53.133 97.215 40.966 72.287l11.88 13.582v-8.193c0-12.039-9.75-21.802-21.773-21.802h-9.3C9.751 55.874 0 65.637 0 77.676l.106 169.33C.106 254.183 5.915 260 13.083 260c7.17 0 12.978-5.816 12.978-12.995v-77.44h8.652v77.44c0 3.748-1.035 7.217-2.708 10.292C34.19 258.97 36.888 260 39.85 260c7.169 0 12.978-5.816 12.978-12.995l.013-117.363-14.638-5.714-3.604-1.404c-3.633-1.418-6.104-4.633-6.818-8.199l-6.248-32.53 14.02 28.727a10.797 10.797 0 0 0 5.789 5.334l40.015 15.618c1.292.503 2.619.744 3.924.744 4.33 0 8.415-2.617 10.08-6.899z"/>
    </g>
</svg>
